{"title":"The Son of No One (2011) BRRip NL subs DutchReleaseTeam [Actie&amp;a","uid":6782730,"size":739740036,"categoryP":"video","categoryS":"movies","magnet":"?xt=urn:btih:2fb70fe0f378328690071d44cc25c1bb2ff5cae3&amp;dn=The+Son+of+No+One+%282011%29+BRRip+NL+subs+DutchReleaseTeam+%5BActie%26a&amp;tr=udp%3A%2F%2Ftracker.openbittorrent.com%3A80&amp;tr=udp%3A%2F%2Fopen.demonii.com%3A1337&amp;tr=udp%3A%2F%2Ftracker.coppersurfer.tk%3A6969&amp;tr=udp%3A%2F%2Fexodus.desync.com%3A6969","seeders":2,"leechers":1,"uploader":"Koedje","files":-1,"time":1319973933,"description":" &lt;a href=&quot;http://img253.imageshack.us/img253/2175/sonof.jpg&quot; rel=&quot;nofollow&quot; target=&quot;_NEW&quot;&gt;http://img253.imageshack.us/img253/2175/sonof.jpg&lt;/a&gt;\n\n\nVerenigde Staten\nActie / Misdaad\n95 minuten\n\ngeregisseerd door Dito Montiel\nmet Channing Tatum, Al Pacino en Katie Holmes\n\n'The Son of No One' vertelt het verhaal over de jonge agent Jonathan White (Channing Tatum). Jonathan keert terug naar zijn roots om daar bij de politie te werken. Hij heeft echter een diep geworteld geheim waardoor zijn eigen leven en familie in gevaar komen.\n\n\n\nVertaald door Simply Release Toppers:\nTackleR, Aegis en Anata\n\n\n\n\n\n\nScreenshots:\n &lt;a href=&quot;\nhttp://img687.imageshack.us/img687/3862/screenshot1bv.jpg&quot; rel=&quot;nofollow&quot; target=&quot;_NEW&quot;&gt;\nhttp://img687.imageshack.us/img687/3862/screenshot1bv.jpg&lt;/a&gt;\n &lt;a href=&quot;\nhttp://img401.imageshack.us/img401/9274/screenshot2jx.jpg&quot; rel=&quot;nofollow&quot; target=&quot;_NEW&quot;&gt;\nhttp://img401.imageshack.us/img401/9274/screenshot2jx.jpg&lt;/a&gt;\n &lt;a href=&quot;\nhttp://img853.imageshack.us/img853/9496/screenshot3izd.jpg&quot; rel=&quot;nofollow&quot; target=&quot;_NEW&quot;&gt;\nhttp://img853.imageshack.us/img853/9496/screenshot3izd.jpg&lt;/a&gt;\n &lt;a href=&quot;\nhttp://img33.imageshack.us/img33/8653/screenshot4cut.jpg&quot; rel=&quot;nofollow&quot; target=&quot;_NEW&quot;&gt;\nhttp://img33.imageshack.us/img33/8653/screenshot4cut.jpg&lt;/a&gt;\n\n\n\n\n\nINFO;\n\n\nVideo\nID                                       : 0\nFormat                                   : MPEG-4 Visual\nFormat profile                           : Advanced Simple@L5\nFormat settings, BVOP                    : 1\nFormat settings, QPel                    : No\nFormat settings, GMC                     : No warppoints\nFormat settings, Matrix                  : Default (H.263)\nMuxing mode                              : Packed bitstream\nCodec ID                                 : XVID\nCodec ID/Hint                            : XviD\nDuration                                 : 1h 34mn\nBit rate                                 : 921 Kbps\nWidth                                    : 672 pixels\nHeight                                   : 384 pixels\nDisplay aspect ratio                     : 16:9\nFrame rate                               : 23.976 fps\nColor space                              : YUV\nChroma subsampling                       : 4:2:0\nBit depth                                : 8 bits\nScan type                                : Progressive\nCompression mode                         : Lossy\nBits/(Pixel*Frame)                       : 0.149\nStream size                              : 620 MiB (88%)\nWriting library                          : XviD 64\n\nAudio\nID                                       : 1\nFormat                                   : MPEG Audio\nFormat version                           : Version 1\nFormat profile                           : Layer 3\nMode                                     : Joint stereo\nMode extension                           : MS Stereo\nCodec ID                                 : 55\nCodec ID/Hint                            : MP3\nDuration                                 : 1h 33mn\nBit rate mode                            : Variable\nBit rate                                 : 110 Kbps\nNominal bit rate                         : 128 Kbps\nChannel(s)                               : 2 channels\nSampling rate                            : 48.0 KHz\nCompression mode                         : Lossy\nStream size                              : 73.6 MiB (10%)\nAlignment                                : Aligned on interleaves\nInterleave, duration                     : 24 ms (0.58 video frame)\nInterleave, preload duration             : 244 ms\n\n\n\n &lt;a href=&quot;\nhttp://www.imdb.com/title/tt1535612/&quot; rel=&quot;nofollow&quot; target=&quot;_NEW&quot;&gt;\nhttp://www.imdb.com/title/tt1535612/&lt;/a&gt; &lt;a href=&quot;\nhttp://www.moviemeter.nl/film/66094&quot; rel=&quot;nofollow&quot; target=&quot;_NEW&quot;&gt;\nhttp://www.moviemeter.nl/film/66094&lt;/a&gt;\n\n\n\n\nDeze film wordt u aangeboden door het DutchReleaseTeam.\nVoor de reviews van de nieuwste films, muziek, series, games etc\nga dan eens naar http://www.hetmultimediacafe.be\n\nDutchReleaseteam = Hardcoded Dutch Subs","torrent":{"xt":"urn:btih:2fb70fe0f378328690071d44cc25c1bb2ff5cae3","amp;dn":"The+Son+of+No+One+%282011%29+BRRip+NL+subs+DutchReleaseTeam+%5BActie%26a","amp;tr":["udp%3A%2F%2Ftracker.openbittorrent.com%3A80","udp%3A%2F%2Fopen.demonii.com%3A1337","udp%3A%2F%2Ftracker.coppersurfer.tk%3A6969","udp%3A%2F%2Fexodus.desync.com%3A6969"],"infoHash":"2fb70fe0f378328690071d44cc25c1bb2ff5cae3","infoHashBuffer":{"type":"Buffer","data":[47,183,15,224,243,120,50,134,144,7,29,68,204,37,193,187,47,245,202,227]},"announce":[],"urlList":[]}}